<svg width="43" height="43" viewBox="0 0 43 43" fill="none" xmlns="http://www.w3.org/2000/svg">
<rect width="43" height="43" rx="7" fill="#CCB87D" fill-opacity="0.33"/>
<rect x="0.5" y="0.5" width="42" height="42" rx="6.5" stroke="black" stroke-opacity="0.12"/>
<path d="M18.1771 25.8594C18.1741 25.8554 18.1714 25.8528 18.1698 25.8514C18.1692 25.851 18.1688 25.8506 18.1684 25.8503L18.1721 23.3502C18.1718 23.3501 18.1714 23.35 18.1709 23.3498C18.1699 23.3494 18.1689 23.3489 18.1679 23.3483C18.1649 23.3467 18.1615 23.3443 18.1583 23.3411C18.1519 23.3347 18.1401 23.3187 18.1401 23.2878V25.9128C18.1401 25.9153 18.14 25.9165 18.14 25.9165C18.14 25.9165 18.1401 25.9152 18.1408 25.9128C18.1413 25.9106 18.1423 25.9074 18.1439 25.9035C18.1487 25.8918 18.1568 25.879 18.1679 25.8678C18.1691 25.8666 18.1703 25.8654 18.1715 25.8642C18.1735 25.8625 18.1753 25.8608 18.1771 25.8594ZM18.1771 25.8594C18.18 25.863 18.1831 25.8678 18.1861 25.874C18.1929 25.8878 18.1957 25.9022 18.1957 25.9128V25.8479C18.1929 25.849 18.1859 25.8523 18.1771 25.8594ZM24.0761 19.7253H18.9239L20.9113 16.2047L20.9121 16.2031C21.244 15.6104 20.976 14.9063 20.3927 14.6239L20.3912 14.6232C19.8236 14.3507 19.1016 14.5397 18.7827 15.1085C18.7826 15.1087 18.7824 15.109 18.7823 15.1093L16.1788 19.7253H13.9444C13.1744 19.7253 12.5 20.338 12.5 21.1003C12.5 21.7798 12.9657 22.269 13.5471 22.4235L14.9928 27.8035L14.9929 27.8039C15.2667 28.8194 16.2345 29.4999 17.2825 29.4999H25.691C26.7732 29.4999 27.7006 28.8144 28.0023 27.8187L28.0046 27.8112L28.0066 27.8035L29.4528 22.4236C30.0349 22.2692 30.5 21.7797 30.5 21.1003C30.5 20.3383 29.8268 19.7253 29.0556 19.7253H26.8212L24.2177 15.1093C24.2176 15.1091 24.2175 15.1089 24.2174 15.1087C23.8985 14.5398 23.1764 14.3506 22.6088 14.6232L22.6073 14.6239C22.024 14.9063 21.756 15.6104 22.0879 16.2031L22.0887 16.2047L24.0761 19.7253ZM21.474 25.8503C21.4743 25.8506 21.4748 25.851 21.4753 25.8514C21.478 25.8537 21.4836 25.8593 21.4891 25.869C21.493 25.8634 21.4971 25.8586 21.5012 25.8547L21.474 25.8503ZM24.7929 23.3478L24.7928 23.3478L24.793 23.3479C24.793 23.348 24.7931 23.348 24.7931 23.348L24.7929 23.3478Z" fill="white" stroke="black"/>
</svg>
