<svg width="388" height="62" viewBox="0 0 388 62" fill="none" xmlns="http://www.w3.org/2000/svg">
<path d="M27.9028 38.992C28.3508 38.544 29.2468 37.712 29.2468 37.264C29.2468 37.008 28.9908 36.752 28.7348 36.752C28.5428 36.752 28.3508 37.008 27.9668 37.392C25.6628 39.76 22.7828 40.72 19.4548 40.72C10.6228 40.72 4.15875 32.976 4.15875 23.12C4.15875 12.432 11.3908 2.832 20.2868 2.832C25.2148 2.832 28.5428 6.096 28.5428 11.152C28.5428 16.08 25.0228 20.368 20.4788 20.368C17.7908 20.368 15.8708 18.576 15.8708 15.888C15.8708 14.096 16.6388 12.752 18.0468 11.344L17.4068 10.768C14.6548 12.752 13.2468 15.056 13.2468 17.616C13.2468 21.008 15.7428 22.8 18.6228 22.8C25.1508 22.8 31.1028 15.696 31.1028 8.336C31.1028 3.408 27.7748 0.528 22.7188 0.528C11.3908 0.528 0.44675 13.264 0.44675 26.064C0.44675 35.984 6.78275 43.024 16.8948 43.024C20.8628 43.024 25.0868 41.808 27.9028 38.992ZM49.4638 38.992C49.7838 38.544 50.4878 37.648 50.4878 37.328C50.4878 36.88 50.1678 36.88 49.9118 36.88C49.7198 36.88 49.4638 37.2 49.2078 37.52C47.6718 39.632 46.7118 40.208 46.3278 40.208C45.6238 40.208 45.6238 39.696 45.6238 38.032V27.28L42.4878 28.816V33.552C40.4398 37.584 37.8798 40.528 36.9198 40.528C36.2158 40.528 36.0238 39.952 36.0238 38.16V27.152L32.8878 28.752V30.032C31.9918 31.76 30.2638 34.576 28.2797 37.008C27.8317 37.584 27.6397 37.84 27.6397 38.032C27.6397 38.224 27.8957 38.48 28.1517 38.48C28.6638 38.48 28.7278 38.352 29.4958 37.328C30.7118 35.728 31.7998 34.128 32.8878 32.528V37.968C32.8878 40.464 33.3358 42.832 35.3838 42.832C37.3678 42.832 39.5438 40.656 42.4878 36.048V38.8C42.4878 40.656 42.7438 42.768 44.8558 42.768C46.0718 42.768 47.4798 41.808 49.4638 38.992ZM62.5843 35.408C62.5843 32.976 61.5603 30.48 59.1283 28.368C57.9123 27.344 57.8483 27.024 57.7203 25.616H56.9523C54.9683 29.456 51.3843 34.96 49.3362 37.264C48.8882 37.776 48.8242 37.904 48.8242 38.16C48.8242 38.416 49.0802 38.608 49.3362 38.608C49.6562 38.608 50.0403 38.224 50.6163 37.584C52.4723 35.664 54.3923 32.336 55.8003 30.096C58.8723 32.4 60.5363 34.064 60.5363 37.008C60.5363 39.632 58.9363 41.296 56.9523 41.296C54.9683 41.296 53.6243 39.76 53.6243 37.776C53.6243 37.456 53.6243 37.264 53.6883 36.816L53.2403 36.688C52.3443 37.392 51.0643 38.544 50.6163 39.12C51.7682 41.36 53.6883 42.704 56.1843 42.704C59.8963 42.704 62.5843 39.696 62.5843 35.408ZM65.4643 38.16C65.7203 37.84 66.0403 37.52 66.0403 37.2C66.0403 36.944 65.7843 36.688 65.5283 36.688C65.4003 36.688 65.2083 36.816 64.8883 37.136C63.4163 38.8 61.5603 40.784 60.2163 41.488C59.8323 41.744 59.5763 42 59.5763 42.192C59.5763 42.384 59.7043 42.448 59.8963 42.448C60.4723 42.448 60.7283 42.128 61.5603 41.68C62.7123 40.976 64.4403 39.44 65.4643 38.16ZM77.2538 39.504C78.2778 38.352 78.9818 37.584 78.9818 37.264C78.9818 36.944 78.7898 36.752 78.5338 36.752C78.3418 36.752 78.1498 36.88 77.7018 37.392C75.4618 40.144 73.8618 40.912 73.0938 40.912C72.1978 40.912 71.9418 39.952 71.9418 38.224V29.456L78.0218 21.008L77.0618 20.24L71.9418 27.344V12.24L68.8698 15.44V31.696C67.7818 33.296 66.5658 35.024 64.9017 37.136C64.5177 37.648 64.3897 37.84 64.3897 38.096C64.3897 38.352 64.5177 38.544 64.8377 38.544C65.1578 38.544 65.4138 38.224 65.8618 37.712C67.0138 36.432 68.6778 34.192 68.8698 34V37.968C68.8698 40.528 69.0618 42.576 71.8778 42.576C73.6698 42.576 75.5258 41.488 77.2538 39.504ZM95.4363 33.104C95.4363 29.584 92.8123 27.728 89.5483 27.728C86.3483 27.728 82.7643 29.712 80.8443 33.04C79.8843 34.704 79.1163 35.856 77.7082 37.456C77.3242 37.904 77.1322 38.224 77.1322 38.416C77.1322 38.608 77.3242 38.864 77.5802 38.864C77.9002 38.864 78.3483 38.544 78.7963 37.968C79.2443 37.392 79.4363 37.2 79.8843 36.688C80.0123 40.464 81.9323 42.832 85.6443 42.832C90.5723 42.832 95.4363 38.16 95.4363 33.104ZM87.7563 40.848C84.7483 40.848 82.9563 38.288 82.9563 35.216C82.9563 32.016 84.9403 29.2 88.1403 29.2C90.7643 29.2 92.9403 31.568 92.9403 34.896C92.9403 38.288 90.6363 40.848 87.7563 40.848ZM98.0603 37.2C98.0603 36.944 97.8683 36.688 97.6123 36.688C97.0363 36.688 96.4603 37.968 93.9643 40.016C91.2763 42.192 89.8043 42.128 89.8043 42.576C89.8043 42.832 90.0603 42.96 90.3803 42.96C91.1483 42.96 92.8763 42.256 94.3483 41.168C97.1643 38.992 98.0603 37.456 98.0603 37.2ZM128.006 38.608C128.518 37.968 128.902 37.328 128.902 37.2C128.902 36.944 128.646 36.688 128.39 36.688C128.07 36.688 127.75 37.008 127.11 37.84C125.766 39.632 124.678 40.208 124.23 40.208C123.398 40.208 123.334 39.504 123.334 37.136V32.144C123.334 29.328 122.758 27.664 120.646 27.664C117.574 27.664 115.078 32.336 114.118 33.488C114.118 29.776 113.798 27.728 111.43 27.728C109.382 27.728 107.974 29.2 104.71 33.808V27.28L101.574 29.008V30.032C100.678 31.824 98.6938 35.216 97.2218 36.752C96.8377 37.2 96.5817 37.456 96.5817 37.776C96.5817 38.032 96.8377 38.224 97.0938 38.224C97.4778 38.224 97.8618 37.584 98.3098 37.072C99.5898 35.536 100.102 34.768 101.574 32.4V43.344L104.71 41.744V36.688C106.758 32.4 108.55 30.416 109.766 30.416C110.662 30.416 110.982 31.12 110.982 32.976V43.216L114.118 41.488V36.304C115.91 32.208 118.022 30.032 119.174 30.032C119.942 30.032 120.198 30.672 120.198 31.632V38.672C120.198 41.424 120.518 42.704 122.566 42.704C124.422 42.704 126.726 40.272 128.006 38.608ZM155.911 37.456C155.911 37.2 155.655 36.944 155.399 36.944C155.143 36.944 155.015 37.136 154.695 37.456C152.519 39.76 150.791 40.336 149.127 40.336C146.375 40.336 143.943 37.776 143.943 34.128C143.943 31.184 145.863 29.072 147.975 29.072C149.767 29.072 150.855 29.968 152.135 32.208C152.839 32.016 154.055 30.672 154.247 29.968C153.479 28.432 151.559 27.664 149.383 27.664C145.479 27.664 143.175 29.776 141.575 33.936C141.127 35.088 140.679 35.856 139.527 37.136C139.143 37.584 139.079 37.712 139.079 37.904C139.079 38.224 139.335 38.416 139.591 38.416C139.783 38.416 140.039 38.352 140.423 37.776C140.551 37.584 140.743 37.328 141.255 36.688C141.511 40.016 143.303 42.768 147.079 42.768C149.191 42.768 151.175 41.936 152.967 40.592C153.927 39.888 155.911 37.968 155.911 37.456ZM176.596 38.48C176.916 38.096 177.3 37.712 177.3 37.392C177.3 37.136 177.044 36.88 176.788 36.88C176.532 36.88 176.404 37.008 176.084 37.392C174.932 38.864 173.588 40.016 172.756 40.016C171.86 40.016 171.796 38.992 171.796 36.24V27.28L168.98 28.688C167.892 28.112 166.868 27.856 165.46 27.856C161.684 27.856 158.868 30.16 156.884 34.256C156.436 35.216 156.116 35.856 155.156 36.88C154.452 37.648 154.452 37.776 154.452 37.968C154.452 38.224 154.644 38.48 154.964 38.48C155.156 38.48 155.348 38.416 155.924 37.712C156.052 37.584 156.308 37.2 156.756 36.688C156.82 40.336 159.124 42.768 162.068 42.768C164.244 42.768 166.612 41.36 168.468 38.992C168.724 41.424 169.172 42.64 170.772 42.64C172.692 42.64 175.316 40.08 176.596 38.48ZM164.052 39.824C161.364 39.824 160.084 37.712 160.084 35.216C160.084 31.632 162.26 29.008 165.204 29.008C166.548 29.008 167.444 29.328 168.596 30.288V36.688C166.996 39.056 165.844 39.824 164.052 39.824ZM188.629 39.504C189.653 38.352 190.357 37.584 190.357 37.264C190.357 36.944 190.165 36.752 189.909 36.752C189.717 36.752 189.525 36.88 189.077 37.392C186.837 40.144 185.237 40.912 184.469 40.912C183.573 40.912 183.317 39.952 183.317 38.224V29.456L189.397 21.008L188.437 20.24L183.317 27.344V12.24L180.245 15.44V31.696C179.157 33.296 177.941 35.024 176.277 37.136C175.893 37.648 175.765 37.84 175.765 38.096C175.765 38.352 175.893 38.544 176.213 38.544C176.533 38.544 176.789 38.224 177.237 37.712C178.389 36.432 180.053 34.192 180.245 34V37.968C180.245 40.528 180.437 42.576 183.253 42.576C185.045 42.576 186.901 41.488 188.629 39.504ZM205.851 37.2C205.851 36.944 205.659 36.688 205.339 36.688C205.147 36.688 204.891 37.008 204.507 37.456C202.971 39.312 200.987 40.208 199.259 40.208C197.531 40.208 196.507 39.568 195.419 38.224C199.899 35.984 202.715 33.296 202.715 30.16C202.715 28.56 201.435 27.472 199.707 27.472C197.403 27.472 195.035 28.944 193.499 31.056C192.795 32.08 191.323 35.088 189.339 37.2C189.019 37.584 188.891 37.648 188.891 37.904C188.891 38.16 189.147 38.352 189.403 38.352C189.531 38.352 189.787 38.352 190.427 37.584C190.747 37.2 191.131 36.688 191.643 35.984C191.643 39.632 193.307 42.768 197.403 42.768C198.939 42.768 200.347 42.32 201.947 41.296C202.715 40.848 205.851 38.096 205.851 37.2ZM194.907 37.2C194.651 36.112 194.523 35.28 194.523 34.32C194.523 31.632 196.123 29.2 198.235 29.2C199.323 29.2 200.283 30.032 200.283 31.312C200.283 34.64 195.739 36.56 194.907 37.2ZM222.185 42.896C223.401 42 225.385 39.888 226.409 38.544C226.665 38.16 227.049 37.648 227.049 37.392C227.049 37.136 226.857 36.944 226.601 36.944C226.345 36.944 226.089 37.008 225.705 37.584C224.553 39.12 222.633 40.976 222.185 41.168V27.28L219.241 29.264C217.961 28.304 216.681 27.728 215.017 27.728C211.497 27.728 208.809 30.16 207.145 33.616C206.505 34.832 206.441 35.28 204.969 36.88C204.265 37.648 204.201 37.904 204.201 38.096C204.201 38.288 204.457 38.544 204.713 38.544C204.969 38.544 205.033 38.48 205.481 37.968C205.737 37.712 206.121 37.328 206.633 36.688C207.081 40.336 209.001 42.832 212.585 42.832C215.209 42.832 217.449 41.168 218.985 39.056V51.728C218.985 56.144 218.473 57.168 217.833 58.192C217.001 59.472 215.913 60.176 213.929 60.176C211.817 60.176 209.577 58.512 209.577 56.016V55.12L209.129 54.864C207.977 56.016 207.721 56.272 206.633 57.68C208.233 59.92 210.281 61.392 213.417 61.392C215.849 61.392 218.025 60.496 219.369 59.024C221.097 57.104 222.185 55.952 222.185 50.832V42.896ZM218.985 37.008C217.577 39.12 216.425 40.208 214.249 40.208C211.369 40.208 209.961 38.16 209.961 35.152C209.961 31.824 211.945 28.944 215.081 28.944C216.681 28.944 218.025 29.776 218.985 31.056V37.008ZM243.561 33.104C243.561 29.584 240.937 27.728 237.673 27.728C234.473 27.728 230.889 29.712 228.969 33.04C228.009 34.704 227.241 35.856 225.833 37.456C225.449 37.904 225.257 38.224 225.257 38.416C225.257 38.608 225.449 38.864 225.705 38.864C226.025 38.864 226.473 38.544 226.921 37.968C227.369 37.392 227.561 37.2 228.009 36.688C228.137 40.464 230.057 42.832 233.769 42.832C238.697 42.832 243.561 38.16 243.561 33.104ZM235.881 40.848C232.873 40.848 231.081 38.288 231.081 35.216C231.081 32.016 233.065 29.2 236.265 29.2C238.889 29.2 241.065 31.568 241.065 34.896C241.065 38.288 238.761 40.848 235.881 40.848ZM246.185 37.2C246.185 36.944 245.993 36.688 245.737 36.688C245.161 36.688 244.585 37.968 242.089 40.016C239.401 42.192 237.929 42.128 237.929 42.576C237.929 42.832 238.185 42.96 238.505 42.96C239.273 42.96 241.001 42.256 242.473 41.168C245.289 38.992 246.185 37.456 246.185 37.2ZM260.195 39.12C261.027 38.224 261.539 37.456 261.539 37.2C261.539 36.944 261.283 36.688 261.027 36.688C260.835 36.688 260.707 36.88 260.515 37.072C258.659 39.312 257.379 40.144 256.483 40.144C255.203 40.144 254.307 38.8 254.307 37.2C254.307 34.064 255.843 31.888 258.467 27.728L258.083 27.408C256.931 28.24 256.163 28.56 255.075 28.56C254.051 28.56 252.707 28.176 250.723 27.28C248.483 31.952 246.307 35.536 245.027 37.072C244.643 37.584 244.579 37.776 244.579 37.968C244.579 38.224 244.771 38.48 245.027 38.48C245.219 38.48 245.539 38.288 246.115 37.52C246.883 36.496 248.163 34.448 250.339 30.864C251.363 31.056 252.003 31.12 252.835 31.12C253.475 31.12 253.859 31.12 254.499 30.992C252.195 34.704 251.171 36.496 251.171 38.608C251.171 41.04 252.643 42.576 254.563 42.576C257.059 42.576 258.851 40.656 260.195 39.12ZM278.064 49.744V43.088C280.176 40.848 281.456 39.312 282.224 38.416C282.672 37.904 282.992 37.328 282.992 37.136C282.992 36.88 282.736 36.688 282.48 36.688C282.224 36.688 281.904 36.88 281.584 37.328C280.624 38.672 278.896 40.464 278.128 41.232V26.96L274.8 28.752V33.808C272.176 38.352 270.384 40.528 268.976 40.528C268.08 40.528 268.016 38.928 268.016 37.712V26.96L264.816 28.624V29.904C263.664 32.4 262 35.344 260.656 36.944C260.016 37.712 259.888 37.84 259.888 38.096C259.888 38.352 260.08 38.544 260.4 38.544C260.592 38.544 260.784 38.416 261.104 38.096C262.192 37.008 263.984 34.064 264.816 32.528V38.48C264.816 40.144 265.2 42.64 267.44 42.64C270.256 42.512 271.856 40.784 274.8 36.368V51.408C274.8 57.04 274.096 59.664 270.384 59.664C268.144 59.664 266.352 57.936 266.352 55.568V54.608L265.904 54.416C264.368 55.952 263.728 56.656 263.216 57.296C264.56 59.472 267.056 61.008 269.936 61.008C276.144 61.008 278.064 55.952 278.064 49.744ZM322.389 28.944C322.389 26.64 321.749 24.656 320.469 21.712C323.733 19.536 324.885 17.232 324.885 14.416C324.885 11.984 323.541 10.448 321.173 10.448C320.149 10.448 319.445 10.64 318.421 11.088L318.741 11.856C319.125 11.792 319.317 11.728 319.509 11.728C321.685 11.728 322.645 13.904 322.645 15.504C322.645 17.616 322.197 18.576 319.957 20.688C316.949 14.8 316.309 12.944 316.309 10.128C316.309 6.096 319.445 2.448 323.669 1.232L323.477 0.271999C311.637 0.528 302.997 6.16 302.997 14.416C302.997 19.664 307.541 23.76 313.685 23.76C314.709 23.76 315.413 23.632 316.629 23.376C318.101 26.32 318.805 28.432 318.805 31.184C318.805 36.88 314.581 41.232 308.437 41.232C304.085 41.232 299.989 38.608 299.989 34.64C299.989 33.808 300.181 33.232 300.565 32.528L300.117 32.08C298.581 32.336 297.557 32.656 295.637 33.488C296.469 39.184 301.397 42.704 307.669 42.704C315.669 42.704 322.389 36.816 322.389 28.944ZM315.989 22.288C315.477 22.288 315.029 22.352 314.709 22.352C310.101 22.352 306.709 18.704 306.709 13.456C306.709 6.8 311.957 2.384 320.277 1.616C316.309 4.24 313.493 8.208 313.493 12.88C313.493 15.568 314.389 18.64 315.989 22.288ZM339.129 39.504C340.153 38.352 340.857 37.584 340.857 37.264C340.857 36.944 340.665 36.752 340.409 36.752C340.217 36.752 340.025 36.88 339.577 37.392C337.337 40.144 335.737 40.912 334.969 40.912C334.073 40.912 333.817 39.952 333.817 38.224V29.456L339.897 21.008L338.937 20.24L333.817 27.344V12.24L330.745 15.44V31.696C329.657 33.296 328.441 35.024 326.777 37.136C326.393 37.648 326.265 37.84 326.265 38.096C326.265 38.352 326.393 38.544 326.713 38.544C327.033 38.544 327.289 38.224 327.737 37.712C328.889 36.432 330.553 34.192 330.745 34V37.968C330.745 40.528 330.937 42.576 333.753 42.576C335.545 42.576 337.401 41.488 339.129 39.504ZM356.351 37.2C356.351 36.944 356.159 36.688 355.839 36.688C355.647 36.688 355.391 37.008 355.007 37.456C353.471 39.312 351.487 40.208 349.759 40.208C348.031 40.208 347.007 39.568 345.919 38.224C350.399 35.984 353.215 33.296 353.215 30.16C353.215 28.56 351.935 27.472 350.207 27.472C347.903 27.472 345.535 28.944 343.999 31.056C343.295 32.08 341.823 35.088 339.839 37.2C339.519 37.584 339.391 37.648 339.391 37.904C339.391 38.16 339.647 38.352 339.903 38.352C340.031 38.352 340.287 38.352 340.927 37.584C341.247 37.2 341.631 36.688 342.143 35.984C342.143 39.632 343.807 42.768 347.903 42.768C349.439 42.768 350.847 42.32 352.447 41.296C353.215 40.848 356.351 38.096 356.351 37.2ZM345.407 37.2C345.151 36.112 345.023 35.28 345.023 34.32C345.023 31.632 346.623 29.2 348.735 29.2C349.823 29.2 350.783 30.032 350.783 31.312C350.783 34.64 346.239 36.56 345.407 37.2ZM386.381 38.608C386.893 37.968 387.277 37.328 387.277 37.2C387.277 36.944 387.021 36.688 386.765 36.688C386.445 36.688 386.125 37.008 385.485 37.84C384.141 39.632 383.053 40.208 382.605 40.208C381.773 40.208 381.709 39.504 381.709 37.136V32.144C381.709 29.328 381.133 27.664 379.021 27.664C375.949 27.664 373.453 32.336 372.493 33.488C372.493 29.776 372.173 27.728 369.805 27.728C367.757 27.728 366.349 29.2 363.085 33.808V27.28L359.949 29.008V30.032C359.053 31.824 357.069 35.216 355.597 36.752C355.213 37.2 354.957 37.456 354.957 37.776C354.957 38.032 355.213 38.224 355.469 38.224C355.853 38.224 356.237 37.584 356.685 37.072C357.965 35.536 358.477 34.768 359.949 32.4V43.344L363.085 41.744V36.688C365.133 32.4 366.925 30.416 368.141 30.416C369.037 30.416 369.357 31.12 369.357 32.976V43.216L372.493 41.488V36.304C374.285 32.208 376.397 30.032 377.549 30.032C378.317 30.032 378.573 30.672 378.573 31.632V38.672C378.573 41.424 378.893 42.704 380.941 42.704C382.797 42.704 385.101 40.272 386.381 38.608Z" fill="black"/>
</svg>
