<?xml version="1.0" encoding="utf-8"?>
<!-- Svg Vector Icons : http://www.onlinewebfonts.com/icon -->
<!DOCTYPE svg PUBLIC "-//W3C//DTD SVG 1.1//EN" "http://www.w3.org/Graphics/SVG/1.1/DTD/svg11.dtd">
<svg version="1.1" xmlns="http://www.w3.org/2000/svg" xmlns:xlink="http://www.w3.org/1999/xlink" x="0px" y="0px" viewBox="0 0 1000 1000" enable-background="new 0 0 1000 1000" xml:space="preserve">
<metadata> Svg Vector Icons : http://www.onlinewebfonts.com/icon </metadata>
<g><path d="M360,325h193.7v99.3h2.8c27-48.3,92.9-99.3,191.2-99.3C952.2,325,990,452.3,990,617.8V955H788.1V656.1c0-71.3-1.4-163-105.1-163c-105.2,0-121.2,77.6-121.2,157.8V955H360V325z M10,325h210v630H10V325z M220,150c0,58-47,105-105,105c-58,0-105-47-105-105C10,92,57,45,115,45C173,45,220,92,220,150z"/></g>
</svg>