<svg width="40" height="44" viewBox="0 0 40 44" fill="none" xmlns="http://www.w3.org/2000/svg">
<g filter="url(#filter0_d_1_96)">
<rect width="40" height="40" rx="6" fill="white"/>
<rect x="1" y="1" width="38" height="38" rx="5" stroke="#CCB87D" stroke-width="2"/>
</g>
<path d="M29.1667 11.25H14.5C13.4875 11.25 12.6667 12.0895 12.6667 13.125V23.125C12.6667 24.1605 13.4875 25 14.5 25H29.1667C30.1792 25 31 24.1605 31 23.125V13.125C31 12.0895 30.1788 11.25 29.1667 11.25ZM17.5212 13.75C18.1965 13.75 18.7434 14.3098 18.7434 15C18.7434 15.6902 18.2316 16.25 17.5212 16.25C16.8463 16.25 16.299 15.6902 16.299 15C16.299 14.3098 16.8795 13.75 17.5212 13.75ZM27.8719 22.1719C27.7649 22.375 27.5587 22.5 27.3333 22.5H16.3333C16.1033 22.5 15.893 22.368 15.7887 22.1582C15.6844 21.9486 15.7041 21.6969 15.8396 21.5066L18.5132 17.7566C18.6288 17.5938 18.8122 17.5 19.0069 17.5C19.2022 17.5 19.3857 17.5954 19.5008 17.7568L20.3544 18.9545L22.7508 15.2783C22.8302 15.1055 23.0212 15 23.258 15C23.4622 15 23.6529 15.1044 23.7664 15.2783L27.8417 21.5283C27.9674 21.7188 27.9788 21.9648 27.8719 22.1719ZM26.4167 26.875H13.5833C12.067 26.875 10.8333 25.6133 10.8333 24.0625V14.6875C10.8333 14.1719 10.4227 13.75 9.91667 13.75C9.41059 13.75 9 14.1719 9 14.6875V24.0625C9 26.6484 11.056 28.75 13.5833 28.75H26.4167C26.9227 28.75 27.3333 28.3301 27.3333 27.8125C27.3333 27.2949 26.9247 26.875 26.4167 26.875Z" fill="#CCB87D"/>
<defs>
<filter id="filter0_d_1_96" x="0" y="0" width="40" height="44" filterUnits="userSpaceOnUse" color-interpolation-filters="sRGB">
<feFlood flood-opacity="0" result="BackgroundImageFix"/>
<feColorMatrix in="SourceAlpha" type="matrix" values="0 0 0 0 0 0 0 0 0 0 0 0 0 0 0 0 0 0 127 0" result="hardAlpha"/>
<feOffset dy="4"/>
<feComposite in2="hardAlpha" operator="out"/>
<feColorMatrix type="matrix" values="0 0 0 0 0.8 0 0 0 0 0.721569 0 0 0 0 0.490196 0 0 0 1 0"/>
<feBlend mode="normal" in2="BackgroundImageFix" result="effect1_dropShadow_1_96"/>
<feBlend mode="normal" in="SourceGraphic" in2="effect1_dropShadow_1_96" result="shape"/>
</filter>
</defs>
</svg>
